<svg width="30" height="30" viewBox="0 0 30 30" fill="none" xmlns="http://www.w3.org/2000/svg">
<g clip-path="url(#clip0_1_3)">
<path d="M14.9531 0.9375C8.85937 0.9375 3.65625 4.875 1.73438 10.3125H28.2656C26.2969 4.875 21.0937 0.9375 14.9531 0.9375Z" fill="#F9F9F9"/>
<path d="M14.9531 29.0625C21.0938 29.0625 26.2969 25.125 28.2188 19.6875H1.73438C3.65625 25.1719 8.85937 29.0625 14.9531 29.0625Z" fill="#ED4C5C"/>
<path d="M1.73438 10.3125C1.21875 11.7656 0.9375 13.3594 0.9375 15C0.9375 16.6406 1.21875 18.2344 1.73438 19.6875H28.2656C28.7812 18.2344 29.0625 16.6406 29.0625 15C29.0625 13.3594 28.7812 11.7656 28.2656 10.3125H1.73438Z" fill="#428BC1"/>
<g clip-path="url(#clip1_1_3)">
<path d="M29.0625 15C29.0625 17.7656 28.2656 20.3437 26.9062 22.5H3.14062C1.78125 20.3437 0.984373 17.7656 0.984373 15C0.984373 12.2344 1.78125 9.65625 3.14062 7.5H26.9062C28.2656 9.65625 29.0625 12.2344 29.0625 15Z" fill="#F9F9F9"/>
<path d="M3.09375 7.5C5.57812 3.5625 9.98438 0.9375 15 0.9375C20.0156 0.9375 24.4219 3.5625 26.9062 7.5H3.09375Z" fill="#C94747"/>
<path d="M26.9062 22.5C24.4219 26.4375 20.0156 29.0625 15 29.0625C9.98438 29.0625 5.57812 26.4375 3.09375 22.5H26.9062Z" fill="#699635"/>
<path d="M12.0469 17.0625C12.3281 17.2969 12.6562 17.4375 13.0312 17.4844C13.9219 17.5781 14.7187 16.9219 14.8125 16.0781V14.8594C14.8125 14.5781 14.5781 14.3437 14.25 14.3437C14.0625 14.3437 13.875 14.4375 13.7813 14.5781C13.5469 13.9219 13.9219 13.2656 14.5781 13.0312C15.2344 12.7969 15.9375 13.1719 16.1719 13.8281C16.2656 14.0625 16.2656 14.3437 16.1719 14.5781C16.0312 14.3437 15.7031 14.25 15.4219 14.3906C15.2812 14.4844 15.1406 14.625 15.1406 14.8125V16.0312C15.2344 16.875 16.0312 17.5312 16.9219 17.4375C17.2969 17.3906 17.625 17.25 17.9062 17.0156C18.2344 17.8594 19.2187 18.2812 20.1094 17.9062C20.25 17.8594 20.3438 17.8125 20.4844 17.7187C20.3438 19.2187 18 18.9375 17.8125 17.4375C17.0625 18.7031 15.4687 18.3281 15 16.7812C14.5312 18.3281 12.8906 18.6562 12.1875 17.4375C12 18.8906 9.65625 19.2187 9.51562 17.7187C9.60937 17.8125 9.75 17.8594 9.89062 17.9062C10.7344 18.3281 11.7188 17.9062 12.0469 17.0625ZM15.9375 14.0156C15.8906 13.6406 15.5625 13.3125 15.1406 13.2656C14.625 13.2187 14.1562 13.5469 14.1094 14.0156C14.4844 13.9219 14.8594 14.1094 15.0469 14.3906C15.1875 14.1094 15.5625 13.9687 15.9375 14.0156Z" fill="#FFCE31"/>
<path d="M16.7812 18.75C16.7812 18.75 16.9687 18.6562 17.2969 18.7031C17.3437 18.4687 17.5313 18.2812 17.6719 18.2344C17.8125 18.375 17.9062 18.6562 17.8594 18.8437C18.0938 18.8906 18.3281 19.0312 18.3281 19.0312C17.7656 19.5469 17.1094 19.4062 16.7812 18.75ZM14.2031 18.6562C14.2031 18.6562 14.3438 18.5156 14.7188 18.5156C14.7188 18.2812 14.9062 18.0937 15 17.9531C15.1406 18.0937 15.2812 18.3281 15.2812 18.5156C15.5156 18.5156 15.7969 18.6562 15.7969 18.6562C15.3281 19.3125 14.625 19.2656 14.2031 18.6562ZM12.3281 18.1875C12.5156 18.2812 12.6562 18.5156 12.7031 18.7031C12.9375 18.6562 13.2188 18.75 13.2188 18.75C12.8438 19.4531 12.1875 19.5469 11.6719 18.9844C11.6719 18.9844 11.8125 18.8437 12.1406 18.7969C12.0938 18.5625 12.2344 18.3281 12.3281 18.1875Z" fill="#FFCE31"/>
<path d="M19.2656 19.875L19.0313 20.625C16.3594 19.875 13.5938 19.875 10.9219 20.625L10.6875 19.875C13.5 19.0781 16.5 19.0781 19.2656 19.875ZM15.375 10.5469L15.6094 11.25L15 10.7812L14.3906 11.25L14.625 10.5469L13.9688 10.0781H14.7656L15 9.375L15.2344 10.0781H16.0313L15.375 10.5469ZM18.375 11.2969L18.6562 12L18 11.5781L17.3906 12L17.625 11.2969L16.9688 10.875H17.7656L18 10.1719L18.2344 10.875H19.0313L18.375 11.2969ZM20.5781 13.4062L20.8594 14.1562L20.2031 13.6875L19.5937 14.1562L19.8281 13.4062L19.1719 12.9844H19.9688L20.2031 12.2812L20.4375 12.9844H21.2344L20.5781 13.4062ZM21 16.5937L20.3906 17.0156L20.625 16.3125L19.9688 15.8906H20.7656L21 15.1875L21.2344 15.8906H22.0312L21.4219 16.3125L21.6563 17.0156L21 16.5937ZM12.375 11.2969L12.6094 12L12 11.5781L11.3438 12L11.625 11.2969L10.9688 10.875H11.7656L12 10.1719L12.2344 10.875H13.0312L12.375 11.2969ZM10.1719 13.4062L10.4062 14.1562L9.79688 13.6875L9.14062 14.1562L9.42187 13.4062L8.76562 12.9844H9.5625L9.79688 12.2812L10.0313 12.9844H10.8281L10.1719 13.4062ZM8.57812 16.3125L7.96875 15.8906H8.76562L9 15.1875L9.23438 15.8906H10.0313L9.375 16.3125L9.60938 17.0156L9 16.5937L8.34375 17.0156L8.57812 16.3125Z" fill="#FFCE31"/>
</g>
</g>
<defs>
<clipPath id="clip0_1_3">
<rect width="30" height="30" fill="white"/>
</clipPath>
<clipPath id="clip1_1_3">
<rect width="15" height="30" fill="white" transform="matrix(-1 0 0 1 30 0)"/>
</clipPath>
</defs>
</svg>
