<svg width="30" height="30" viewBox="0 0 30 30" fill="none" xmlns="http://www.w3.org/2000/svg">
<g clip-path="url(#clip0_5_2)">
<circle cx="16" cy="16" r="16" transform="matrix(-1 0 0 1 32 0)" fill="#001E7F"/>
<rect x="4.60103" y="4.89588" width="3.06667" height="31.5777" transform="rotate(-39.0135 4.60103 4.89588)" fill="#F10821" stroke="white" stroke-width="0.933333"/>
<rect x="5.04616" y="27.9589" width="3.06667" height="31.7782" transform="rotate(-134.441 5.04616 27.9589)" fill="#F10821" stroke="white" stroke-width="0.933333"/>
<path d="M18.2647 12.8009V-0.999997H12.8202V12.8009H-2V18.1327H12.8202V34H18.2647V18.1327H34V12.8009H18.2647Z" fill="#F10821" stroke="white" stroke-width="1.33333"/>
<g clip-path="url(#clip1_5_2)">
<path d="M14.9469 -0.90625C8.04063 -0.90625 2.14375 3.6875 -0.0343742 10.0312H30.0344C27.8031 3.6875 21.9062 -0.90625 14.9469 -0.90625Z" fill="#F9F9F9"/>
<path d="M14.9469 31.9062C21.9062 31.9062 27.8031 27.3125 29.9813 20.9688H-0.0343742C2.14375 27.3672 8.04063 31.9062 14.9469 31.9062Z" fill="#ED4C5C"/>
<path d="M-0.034375 10.0312C-0.61875 11.7266 -0.9375 13.5859 -0.9375 15.5C-0.9375 17.4141 -0.61875 19.2734 -0.034375 20.9688H30.0344C30.6187 19.2734 30.9375 17.4141 30.9375 15.5C30.9375 13.5859 30.6187 11.7266 30.0344 10.0312H-0.034375Z" fill="#428BC1"/>
</g>
</g>
<defs>
<clipPath id="clip0_5_2">
<rect width="30" height="30" rx="15" fill="white"/>
</clipPath>
<clipPath id="clip1_5_2">
<rect width="18" height="35" fill="white" transform="translate(-2 -2)"/>
</clipPath>
</defs>
</svg>
