<svg width="30" height="30" viewBox="0 0 30 30" fill="none" xmlns="http://www.w3.org/2000/svg">
<g clip-path="url(#clip0_1_27)">
<circle cx="16" cy="16" r="16" transform="matrix(-1 0 0 1 32 0)" fill="#001E7F"/>
<rect x="4.60103" y="4.89588" width="3.06667" height="31.5777" transform="rotate(-39.0135 4.60103 4.89588)" fill="#F10821" stroke="white" stroke-width="0.933333"/>
<rect x="5.04615" y="27.9589" width="3.06667" height="31.7782" transform="rotate(-134.441 5.04615 27.9589)" fill="#F10821" stroke="white" stroke-width="0.933333"/>
<path d="M18.3183 13.5284V3.30663e-06H12.7444V13.5284H-2.42838V18.755H12.7444V34.3091H18.3183V18.755H34.4279V13.5284H18.3183Z" fill="#F10821" stroke="white" stroke-width="1.33333"/>
<g clip-path="url(#clip1_1_27)">
<path d="M31 15C31 18.1344 30.065 21.0562 28.47 23.5H0.585003C-1.01 21.0562 -1.945 18.1344 -1.945 15C-1.945 11.8656 -1.01 8.94375 0.585003 6.5H28.47C30.065 8.94375 31 11.8656 31 15Z" fill="#F9F9F9"/>
<path d="M0.530212 6.5C3.44521 2.0375 8.61522 -0.9375 14.5002 -0.9375C20.3852 -0.9375 25.5552 2.0375 28.4702 6.5H0.530212Z" fill="#C94747"/>
<path d="M28.4702 23.5C25.5552 27.9625 20.3852 30.9375 14.5002 30.9375C8.61522 30.9375 3.44521 27.9625 0.530212 23.5H28.4702Z" fill="#699635"/>
<path d="M11.035 17.3375C11.365 17.6031 11.75 17.7625 12.19 17.8156C13.235 17.9219 14.17 17.1781 14.28 16.2219V14.8406C14.28 14.5219 14.005 14.2563 13.62 14.2563C13.4 14.2563 13.18 14.3625 13.07 14.5219C12.795 13.7781 13.235 13.0344 14.005 12.7687C14.775 12.5031 15.6 12.9281 15.875 13.6719C15.985 13.9375 15.985 14.2563 15.875 14.5219C15.71 14.2563 15.325 14.15 14.995 14.3094C14.83 14.4156 14.665 14.575 14.665 14.7875V16.1688C14.775 17.125 15.71 17.8688 16.755 17.7625C17.195 17.7094 17.58 17.55 17.91 17.2844C18.295 18.2406 19.45 18.7188 20.495 18.2937C20.66 18.2406 20.77 18.1875 20.935 18.0812C20.77 19.7812 18.02 19.4625 17.8 17.7625C16.92 19.1969 15.05 18.7719 14.5 17.0187C13.95 18.7719 12.025 19.1437 11.2 17.7625C10.98 19.4094 8.23 19.7812 8.065 18.0812C8.175 18.1875 8.34 18.2406 8.505 18.2937C9.495 18.7719 10.65 18.2938 11.035 17.3375ZM15.6 13.8844C15.545 13.4594 15.16 13.0875 14.665 13.0344C14.06 12.9812 13.51 13.3531 13.455 13.8844C13.895 13.7781 14.335 13.9906 14.555 14.3094C14.72 13.9906 15.16 13.8312 15.6 13.8844Z" fill="#FFCE31"/>
<path d="M16.59 19.25C16.59 19.25 16.81 19.1438 17.195 19.1969C17.25 18.9313 17.47 18.7188 17.635 18.6656C17.8 18.825 17.91 19.1437 17.855 19.3562C18.13 19.4094 18.405 19.5687 18.405 19.5687C17.745 20.1531 16.975 19.9937 16.59 19.25ZM13.565 19.1437C13.565 19.1437 13.73 18.9844 14.17 18.9844C14.17 18.7187 14.39 18.5062 14.5 18.3469C14.665 18.5062 14.83 18.7719 14.83 18.9844C15.105 18.9844 15.435 19.1437 15.435 19.1437C14.885 19.8875 14.06 19.8344 13.565 19.1437ZM11.365 18.6125C11.585 18.7187 11.75 18.9844 11.805 19.1969C12.08 19.1438 12.41 19.25 12.41 19.25C11.97 20.0469 11.2 20.1531 10.595 19.5156C10.595 19.5156 10.76 19.3562 11.145 19.3031C11.09 19.0375 11.255 18.7719 11.365 18.6125Z" fill="#FFCE31"/>
<path d="M19.505 20.525L19.23 21.375C16.095 20.525 12.85 20.525 9.715 21.375L9.44 20.525C12.74 19.6219 16.26 19.6219 19.505 20.525ZM14.94 9.95312L15.215 10.75L14.5 10.2188L13.785 10.75L14.06 9.95312L13.29 9.42188H14.225L14.5 8.625L14.775 9.42188H15.71L14.94 9.95312ZM18.46 10.8031L18.79 11.6L18.02 11.1219L17.305 11.6L17.58 10.8031L16.81 10.325H17.745L18.02 9.52813L18.295 10.325H19.23L18.46 10.8031ZM21.045 13.1938L21.375 14.0438L20.605 13.5125L19.89 14.0438L20.165 13.1938L19.395 12.7156H20.33L20.605 11.9188L20.88 12.7156H21.815L21.045 13.1938ZM21.54 16.8063L20.825 17.2844L21.1 16.4875L20.33 16.0094H21.265L21.54 15.2125L21.815 16.0094H22.75L22.035 16.4875L22.31 17.2844L21.54 16.8063ZM11.42 10.8031L11.695 11.6L10.98 11.1219L10.21 11.6L10.54 10.8031L9.77 10.325H10.705L10.98 9.52813L11.255 10.325H12.19L11.42 10.8031ZM8.835 13.1938L9.11 14.0438L8.395 13.5125L7.625 14.0438L7.955 13.1938L7.185 12.7156H8.12L8.395 11.9188L8.67 12.7156H9.605L8.835 13.1938ZM6.965 16.4875L6.25 16.0094H7.185L7.46 15.2125L7.735 16.0094H8.67L7.9 16.4875L8.175 17.2844L7.46 16.8063L6.69 17.2844L6.965 16.4875Z" fill="#FFCE31"/>
</g>
<g clip-path="url(#clip2_1_27)">
<path d="M14.9469 0.0625C8.04062 0.0625 2.14375 4.525 -0.0343781 10.6875H30.0344C27.8031 4.525 21.9062 0.0625 14.9469 0.0625Z" fill="#F9F9F9"/>
<path d="M14.9469 31.9375C21.9062 31.9375 27.8031 27.475 29.9812 21.3125H-0.0343781C2.14375 27.5281 8.04062 31.9375 14.9469 31.9375Z" fill="#ED4C5C"/>
<path d="M-0.034375 10.6875C-0.61875 12.3344 -0.9375 14.1406 -0.9375 16C-0.9375 17.8594 -0.61875 19.6656 -0.034375 21.3125H30.0344C30.6187 19.6656 30.9375 17.8594 30.9375 16C30.9375 14.1406 30.6187 12.3344 30.0344 10.6875H-0.034375Z" fill="#428BC1"/>
</g>
</g>
<defs>
<clipPath id="clip0_1_27">
<rect width="30" height="30" rx="15" fill="white"/>
</clipPath>
<clipPath id="clip1_1_27">
<rect width="11" height="34" fill="white" transform="matrix(-1 0 0 1 20 -2)"/>
</clipPath>
<clipPath id="clip2_1_27">
<rect width="12" height="34" fill="white" transform="translate(-2 -1)"/>
</clipPath>
</defs>
</svg>
